#tb 0: 1/44100
#media_type 0: audio
#codec_id 0: pcm_s16le
#sample_rate 0: 44100
#channel_layout_name 0: stereo
0,          0,          0,     4096,    16384, 0xf81bef63
0,       4096,       4096,     4096,    16384, 0x0e91ef31
0,       8192,       8192,     4096,    16384, 0x497df271
0,      12288,      12288,     4096,    16384, 0x24edf271
0,      16384,      16384,     4096,    16384, 0xa924f26f
0,      20480,      20480,     4096,    16384, 0xbbacf0a5
0,      24576,      24576,     4096,    16384, 0xa07cef65
0,      28672,      28672,     4096,    16384, 0xe4e8ef75
0,      32768,      32768,     4096,    16384, 0xf6b9ef6b
0,      36864,      36864,     4096,    16384, 0x0e91ef31
0,      40960,      40960,     4096,    16384, 0x718ff31d
0,      45056,      45056,     4096,    16384, 0x7996ef81
0,      49152,      49152,     4096,    16384, 0x6db6fedb
0,      53248,      53248,     4096,    16384, 0x39b1ec49
0,      57344,      57344,     4096,    16384, 0xd47f0d8c
0,      61440,      61440,     4096,    16384, 0x80aef975
0,      65536,      65536,     4096,    16384, 0xee21ef9d
0,      69632,      69632,     4096,    16384, 0x0077e593
0,      73728,      73728,     4096,    16384, 0xe24eed29
0,      77824,      77824,     4096,    16384, 0x7cc2fde7
0,      81920,      81920,     4096,    16384, 0x412cc8cd
0,      86016,      86016,     4096,    16384, 0x7a37d8f1
0,      90112,      90112,     4096,    16384, 0x1dd7e74b
0,      94208,      94208,     4096,    16384, 0x1555e387
0,      98304,      98304,     4096,    16384, 0x0ef1d5fb
0,     102400,     102400,     4096,    16384, 0x47050e68
0,     106496,     106496,     4096,    16384, 0xbfe2e591
0,     110592,     110592,     4096,    16384, 0x9457fb1d
0,     114688,     114688,     4096,    16384, 0x2c14ebc3
0,     118784,     118784,     4096,    16384, 0x5891eedb
0,     122880,     122880,     4096,    16384, 0x691dea77
0,     126976,     126976,     4096,    16384, 0xdb4cf1f1
0,     131072,     131072,     4096,    16384, 0xb614eb41
0,     135168,     135168,     4096,    16384, 0xc3b5f18b
0,     139264,     139264,     4096,    16384, 0xb6b5fb36
0,     143360,     143360,     4096,    16384, 0x7c28db6a
0,     147456,     147456,     4096,    16384, 0xef50ecae
0,     151552,     151552,     4096,    16384, 0x8f15f6e7
0,     155648,     155648,     4096,    16384, 0xca8cfc56
0,     159744,     159744,     4096,    16384, 0xc3e100b4
0,     163840,     163840,     4096,    16384, 0x50c4eec0
0,     167936,     167936,     4096,    16384, 0x0939f4c2
0,     172032,     172032,     4096,    16384, 0x2177edf9
0,     176128,     176128,     4096,    16384, 0xa4c399c6
0,     180224,     180224,     4096,    16384, 0xa7bfde31
0,     184320,     184320,     4096,    16384, 0x9a351735
0,     188416,     188416,     4096,    16384, 0x9151da11
0,     192512,     192512,     4096,    16384, 0xdcbf2544
0,     196608,     196608,     4096,    16384, 0xde5ede81
0,     200704,     200704,     4096,    16384, 0x2e4618c3
0,     204800,     204800,     4096,    16384, 0xd030e391
0,     208896,     208896,     4096,    16384, 0x27812391
0,     212992,     212992,     4096,    16384, 0xa7bfde31
0,     217088,     217088,     4096,    16384, 0x9a351735
0,     221184,     221184,     4096,    16384, 0x9151da11
0,     225280,     225280,     4096,    16384, 0xdcbf2544
0,     229376,     229376,     4096,    16384, 0xde5ede81
0,     233472,     233472,     4096,    16384, 0x2e4618c3
0,     237568,     237568,     4096,    16384, 0xd030e391
0,     241664,     241664,     4096,    16384, 0x27812391
0,     245760,     245760,     4096,    16384, 0xa7bfde31
0,     249856,     249856,     4096,    16384, 0x9a351735
0,     253952,     253952,     4096,    16384, 0x9151da11
0,     258048,     258048,     4096,    16384, 0xdcbf2544
0,     262144,     262144,     2456,     9824, 0x43449151
